<svg enable-background="new 0 0 140 140" height="512" viewBox="0 0 140 140" width="512" xmlns="http://www.w3.org/2000/svg"><circle cx="70" cy="70" fill="#efc84a" r="64"/><path d="m105.2000198 37.7483177-10.9100342-1.2700195 2.8300171 4.5300293-20.7000122 12.7299805c-.3800049-.4500122-.8399658-.8200073-1.3499756-1.1099854l-13.2000122-13.2000122c-.8699951-.8699951-2.0599976-1.3999634-3.3800049-1.3999634-2.6499634 0-4.7999878 2.1499634-4.7999878 4.8099976 0 .3299561.0299683.6599731.0999756.9799805l-22.25 14.3900146c-.6900024.4499512-.8899536 1.3699951-.4400024 2.0700073.0400391.0599976.1000366.1199951.1500244.1699829l-.0100098.0100098.1000366.0999756c.0099487.0100098.0099487.0100098.0199585.0200195l10.4899902 10.4699745c-.1900024.3500366-.2999878.8800049-.2599487 1.4800415.0499878.6699829.2599487 1.25.5299683 1.5699463l-.0100098.0100098.5300293.5100098c-.0599976.4799805-.1900024 2.0999756.4500122 3.3499756.5899658 1.1600342 1.1499634 1.8300171 1.8399658 2.5400391v1.9500122l-.9199829 1.6199951-1.460022 1.3699951-6.1799927 3.3800049c-.960022.5299683-1.8300171 1.2099609-2.5599976 2.0199585-1.6500244 1.8099976-2.5599976 4.1700439-2.5599976 6.6199951v9.1100464l26.1799927 26.1799927c4.0651855.8097534 8.2667847 1.2416382 12.5700073 1.2416382 35.3462524 0 63.9999924-28.6537476 63.9999924-64 0-1.1933594-.0386963-2.3775024-.1031494-3.5548096z" opacity=".1"/><path d="m105.2039719 37.7435265-10.9137573-1.2637939 2.8269043 4.5258179-23.9322129 14.7268943-13.320797-14.3720703c-.4956055-.5341797-1.3027344-.6352539-1.9150391-.2397461l-26.4062499 17.0839843c-.6953125.449707-.8945312 1.378418-.4443359 2.0742188.2871094.4433594.769043.6850586 1.2607422.6850586.2792969 0 .5615234-.0776367.8134766-.2407227l25.3481445-16.3994141 13.2978477 14.3476562c.4858398.5239258 1.2724609.6328125 1.8813477.2607422l25.0063095-15.3823509 2.8456421 4.5557861z" fill="#3a556a"/><path d="m44.933693 74.698227h9.570713v13.020621h-9.570713z" fill="#e69871"/><path d="m57.4335747 106.5739594v-20.8294678l-1.5373383-.8419266-6.1771583 1.2220154-6.1771965-1.2220154-.2643814.1447525v21.5266419z" fill="#d5d6db"/><path d="m68.1867218 106.5739594v-9.107933c0-2.4467773-.910141-4.8048859-2.5560913-6.6162643-.7357712-.8096771-1.6015778-1.4923096-2.5619583-2.0182877l-6.1641579-3.3775864-1.0076904-.5526047-.588047.1152573c-.3613892 2.8937073-1.6425362 11.9996567-4.4901085 21.5574188z" fill="#2f4859"/><path d="m48.6285591 106.5739594c-2.8479042-9.554863-4.1312904-18.6582031-4.4926796-21.5544434l-.5939598-.1182327-.9928894.5437546-6.1818962 3.3864365c-.9603844.5259781-1.8261871 1.2086105-2.5590248 2.0182877-1.6459503 1.8113785-2.5560856 4.169487-2.5560856 6.6162643v9.107933z" fill="#2f4859"/><path d="m47.326149 106.5739594h4.8837433l.07798-.1414109-1.2576408-15.8736572 1.2576408-2.1783142-1.2827644-2.2218399-1.2860298-.0341568-1.2794953.0341568-1.2827987 2.2218399 1.2573471 2.1777267-1.2573471 15.6968003z" fill="#27a2db"/><path d="m54.504406 82.4585266-4.7853585 3.666069 3.9775353 5.1324921 2.1996422-6.3545151z" fill="#ebf0f3"/><path d="m44.9336929 82.4585266 4.7853546 3.666069-3.9775352 5.1324921-2.1996384-6.3545151z" fill="#ebf0f3"/><path d="m52.2451172 106.5739594c1.6279526-3.0739441 3.5486794-7.0595322 4.1451759-9.7639694l-.4934692-2.2605896 1.3386307-1.341568-.3309746-7.7539445-1.4834213-1.3859024s-.0354424.3339157-.1122818.948555c-.3613892 2.8937073-1.6425362 11.9996185-4.4901085 21.5574188h1.4264488z" fill="#3a556a"/><path d="m43.0543251 96.8099899c.5965347 2.7044373 2.5172997 6.6900253 4.1453247 9.7639694h1.428875c-2.847908-9.554863-4.1312943-18.6582031-4.4926453-21.5544434-.0768394-.6146774-.1123199-.9515305-.1123199-.9515305l-1.4745293 1.3770523-.0088882.0088501-.3309402 7.7539444 1.3386307 1.341568z" fill="#3a556a"/><g fill="#f0a67a"><ellipse cx="56.744" cy="72.478" rx="1.891" ry=".907" transform="matrix(.072 -.997 .997 .072 -19.608 123.891)"/><ellipse cx="42.498" cy="72.478" rx=".907" ry="1.891" transform="matrix(.997 -.072 .072 .997 -5.076 3.226)"/><path d="m56.739006 74.4665146-.2820549-8.3255768-.9871826-2.6844139-5.7691536-1.5561829-5.7691536 1.5561829-1.6218948 4.4103661.3526611 6.5996246s-.3290558 2.0230331.4230804 3.5014038c.7521362 1.4783783 1.4572639 2.1534653 2.4444466 3.1386795.9871826.9852066 2.2776031 1.2906952 4.1708603 1.3519287 1.893261-.0612335 3.1836815-.3667221 4.1708641-1.3519287.9871788-.9852142 1.6923103-1.6603012 2.4444466-3.1386795.7521362-1.4783707.4230804-3.5014038.4230804-3.5014038z"/></g><path d="m56.6325798 73.2828979s.9127274-4.1928406 1.0141411-5.5246811-.5070724-3.1569595-.5070724-3.1569595-.8113136-3.3049469-3.2452507-4.5381355c-2.4339409-1.2331886-6.3383865-.6905861-8.9244499.3452911-2.5860596 1.035881-3.3973732 5.4753609-3.2959595 7.1031685s1.0141411 5.7713165 1.0141411 5.7713165h.1789207s-.6859932-5.7713165.4802704-6.5605621c1.1662636-.789238 2.6765671-1.4798203 5.4455566-1.1838608 2.7689934.2959671 6.5213165-.1973038 6.5213165-.1973038s.660759 2.9989243 1.1171227 3.5908508c.2850723.3697586-.0020218 3.200676-.065834 4.3508759z" fill="#2f4859"/><path d="m85.494919 74.698227h9.570713v13.020621h-9.570713z" fill="#e69871"/><path d="m97.9948196 106.5739594v-20.8294678l-1.5373382-.8419266-6.1772003 1.2220154-6.1771546-1.2220154-.264389.1447525v21.5266419z" fill="#d5d6db"/><path d="m89.1897659 106.5739594c-2.847908-9.554863-4.1312943-18.6582031-4.4926453-21.5544434l-.5939941-.1182327-.9928513.5437546-6.1819 3.3864365c-.9603806.5259781-1.8261871 1.2086105-2.5590591 2.0182877-1.6459503 1.8113785-2.5560837 4.169487-2.5560837 6.6162643v9.107933z" fill="#2f4859"/><path d="m108.747963 106.5739594v-9.107933c0-2.4467773-.9101334-4.8048859-2.5560837-6.6162643-.735817-.8096771-1.6016159-1.4923096-2.5620041-2.0182877l-6.1641541-3.3775864-1.0076523-.5526047-.588089.1152573c-.361351 2.8937073-1.6424942 11.9996567-4.4900742 21.5574188z" fill="#2f4859"/><path d="m87.8873901 106.5739594h4.8837052l.07798-.1414109-1.257637-15.8736572 1.257637-2.1783142-1.2827225-2.2218399-1.2860717-.0341568-1.2794876.0341568-1.2827683 2.2218399 1.257309 2.1777267-1.257309 15.6968003z" fill="#e56353"/><path d="m95.0656281 82.4585266-4.7853547 3.666069 3.9775391 5.1324921 2.1996384-6.3545151z" fill="#ebf0f3"/><path d="m85.4949188 82.4585266 4.7853546 3.666069-3.9775314 5.1324921-2.199646-6.3545151z" fill="#ebf0f3"/><path d="m92.8063583 106.5739594c1.6279526-3.0739441 3.548645-7.0595322 4.1451797-9.7639694l-.4935074-2.2605896 1.3386307-1.341568-.3309402-7.7539444-1.4834213-1.3859024s-.0354767.3339157-.1123199.948555c-.361351 2.8937073-1.6425705 11.9996185-4.4901047 21.5574188z" fill="#3a556a"/><path d="m83.6155701 96.8099899c.5964966 2.7044373 2.5172958 6.6900253 4.1453247 9.7639694h1.4288712c-2.847908-9.554863-4.1312943-18.6582031-4.4926758-21.5544434-.0768433-.6146774-.1122894-.9515305-.1122894-.9515305l-1.4745636 1.3770523-.0088501.0088501-.3309784 7.7539444 1.3386307 1.341568z" fill="#3a556a"/><g fill="#f0a67a"><ellipse cx="97.464" cy="72.478" rx="1.891" ry=".907" transform="matrix(.072 -.997 .997 .072 18.199 164.508)"/><ellipse cx="83.06" cy="72.478" rx=".907" ry="1.891" transform="matrix(.997 -.072 .072 .997 -4.972 6.128)"/><path d="m97.3002319 74.4665146-.2820511-8.3255768-.9871826-2.6844139-5.7691574-1.5561829-5.7691498 1.5561829-.9871826 2.6844139-.2820587 8.3255768s-.3290482 2.0230331.4230881 3.5014038c.7521362 1.4783783 1.4572601 2.1534653 2.4444427 3.1386795.9871826.9852066 2.2776031 1.2906952 4.1708603 1.3519287 1.8932648-.0612335 3.1836777-.3667221 4.1708603-1.3519287.9871826-.9852142 1.6923141-1.6603012 2.4444504-3.1386795.7521362-1.4783707.4230804-3.5014038.4230804-3.5014038z"/></g><path d="m96.773613 73.2358322h.5982819s2.1425858-5.1974106 1.4331894-7.1765442c-.7093964-1.9791412-1.6331558-2.1118889-1.6331558-2.1118889s.3138657-4.252903-3.2369843-5.1963768-9.4623566.0587234-10.4856262 2.332489c-1.023262 2.2737656-1.430687 4.6360321-1.2532196 5.7063065s.7868958 3.1539612 1.0258102 4.6832581c.2389069 1.5292892.2389069 1.5292892.2389069 1.5292892l.4124756.1442184s.2155228-1.7952576.5172424-4.3086166c.3017273-2.5133667 1.060173-5.1904297 3.0179901-4.5693207 1.9578171.6211166 7.2981949 1.5244598 8.7057343.4186401 0 0 .9185028 2.1790695.714447 4.4856186-.2040482 2.3065491-.0550919 4.0629273-.0550919 4.0629273z" fill="#2f4859"/><circle cx="72.758" cy="56.815" fill="#ebf0f3" r="4.802"/><circle cx="58.488" cy="42.834" fill="#ebf0f3" r="4.802"/></svg>