<svg height="480pt" viewBox="0 0 480 480" width="480pt" xmlns="http://www.w3.org/2000/svg"><path d="m432 240c0 106.039062-85.960938 192-192 192s-192-85.960938-192-192 85.960938-192 192-192 192 85.960938 192 192zm0 0" fill="#cfd2fc"/><g fill="#8690fa"><path d="m240 480c-132.546875 0-240-107.453125-240-240s107.453125-240 240-240 240 107.453125 240 240c-.148438 132.484375-107.515625 239.851562-240 240zm0-464c-123.710938 0-224 100.289062-224 224s100.289062 224 224 224 224-100.289062 224-224c-.140625-123.652344-100.347656-223.859375-224-224zm0 0"/><path d="m268 328c0-13.253906-12.535156-24-28-24s-28 10.746094-28 24 12.535156 24 28 24 28-10.746094 28-24zm0 0"/><path d="m240 152c-13.253906 0-24-10.746094-24-24s10.746094-24 24-24 24 10.746094 24 24-10.746094 24-24 24zm0-32c-4.417969 0-8 3.582031-8 8s3.582031 8 8 8 8-3.582031 8-8-3.582031-8-8-8zm0 0"/></g><path d="m320 288-8-80c0-35.34375-36.65625-64-72-64s-72 28.65625-72 64l-8 80c-17.671875 0-32 14.328125-32 32h224c0-17.671875-14.328125-32-32-32zm0 0" fill="#5153ff"/></svg>